<?xml version="1.0" standalone="no"?>
<!DOCTYPE svg PUBLIC "-//W3C//DTD SVG 20010904//EN"
 "http://www.w3.org/TR/2001/REC-SVG-20010904/DTD/svg10.dtd">
<svg version="1.0" xmlns="http://www.w3.org/2000/svg"
 width="344.000000pt" height="344.000000pt" viewBox="0 0 344.000000 344.000000"
 preserveAspectRatio="xMidYMid meet">
<metadata>
Created by potrace 1.16, written by Peter Selinger 2001-2019
</metadata>
<g transform="translate(0.000000,344.000000) scale(0.100000,-0.100000)"
fill="#000000" stroke="none">
<path d="M1865 3226 c-16 -8 -365 -350 -775 -760 l-745 -746 750 -750 c543
-543 759 -753 784 -761 112 -37 215 61 187 178 -5 19 -210 231 -659 681 l-652
652 647 648 c360 360 652 659 658 675 45 122 -77 236 -195 183z"/>
<path d="M2755 3221 c-16 -10 -363 -352 -770 -760 l-740 -741 745 -746 c410
-410 757 -752 772 -760 103 -54 224 45 198 162 -8 32 -101 130 -662 691 l-653
653 658 658 657 657 0 55 c0 67 -24 110 -73 133 -46 22 -95 21 -132 -2z"/>
</g>
</svg>
